<svg width="24" height="25" fill="none" xmlns="http://www.w3.org/2000/svg"><path fill-rule="evenodd" clip-rule="evenodd" d="M7.197 4.259a44.696 44.696 0 0 1 9.605 0c1.874.204 3.387 1.643 3.606 3.48a39.75 39.75 0 0 1 0 9.503c-.22 1.837-1.733 3.275-3.606 3.48a44.69 44.69 0 0 1-9.605 0c-1.874-.205-3.387-1.643-3.606-3.48a39.985 39.985 0 0 1 0-9.503c.22-1.837 1.733-3.276 3.606-3.48Zm9.435 1.49a43.117 43.117 0 0 0-9.265 0 2.577 2.577 0 0 0-1.51.702 2.463 2.463 0 0 0-.74 1.463 38.425 38.425 0 0 0 0 9.154 2.47 2.47 0 0 0 .74 1.462c.408.393.94.64 1.51.702 3.053.332 6.212.332 9.265 0a2.577 2.577 0 0 0 1.509-.702c.408-.392.668-.908.739-1.462a38.431 38.431 0 0 0 0-9.154 2.464 2.464 0 0 0-.74-1.462 2.577 2.577 0 0 0-1.508-.701" fill="#000"/><path d="M7.007 12.49c0-.207.08-.405.22-.552a.735.735 0 0 1 .53-.228h3.493V8.074a.8.8 0 0 1 .22-.552.735.735 0 0 1 .53-.229c.199 0 .39.083.53.229.141.146.22.345.22.552v3.636h3.493c.199 0 .39.082.53.228.141.147.22.345.22.552a.797.797 0 0 1-.22.552.735.735 0 0 1-.53.229H12.75v3.636a.797.797 0 0 1-.22.552.735.735 0 0 1-.53.228.735.735 0 0 1-.53-.228.797.797 0 0 1-.22-.552V13.27H7.757a.735.735 0 0 1-.53-.229.797.797 0 0 1-.22-.552Z" fill="#000"/></svg>