<svg width="105" height="105" fill="none" xmlns="http://www.w3.org/2000/svg"><path d="M53.025 55.913a4.208 4.208 0 0 0-1.05 0c-7.7-.263-13.825-6.563-13.825-14.307 0-7.918 6.388-14.35 14.35-14.35 7.919 0 14.35 6.432 14.35 14.35-.044 7.744-6.125 14.044-13.825 14.307Zm28.962 28.874C74.2 91.92 63.876 96.25 52.5 96.25s-21.7-4.331-29.488-11.463c.438-4.112 3.063-8.137 7.744-11.287 11.988-7.963 31.588-7.963 43.488 0 4.681 3.15 7.306 7.175 7.743 11.287Z" stroke="#F8F8F8" stroke-width="1.5" stroke-linecap="round" stroke-linejoin="round"/><path d="M52.5 96.25c24.163 0 43.75-19.588 43.75-43.75 0-24.163-19.587-43.75-43.75-43.75-24.162 0-43.75 19.587-43.75 43.75 0 24.162 19.588 43.75 43.75 43.75Z" stroke="#F8F8F8" stroke-width="1.5" stroke-linecap="round" stroke-linejoin="round"/></svg>