<svg width="48" height="48" fill="none" xmlns="http://www.w3.org/2000/svg"><path d="M42.02 22.44v8.98C42.02 40.4 38.44 44 29.44 44H18.66c-1.16 0-2.22-.06-3.2-.2M6.08 31.04v-8.6M24.06 24c3.66 0 6.36-2.98 6-6.64L28.72 4h-9.34l-1.34 13.36C17.68 21.02 20.4 24 24.06 24Z" stroke="#292D32" stroke-width="1.5" stroke-linecap="round" stroke-linejoin="round"/><path d="M36.66 24c4.04 0 7-3.28 6.6-7.3l-.56-5.5C41.98 6 39.98 4 34.74 4h-6.1l1.4 14.02c.36 3.3 3.32 5.98 6.62 5.98Zm-25.32 0c3.3 0 6.28-2.68 6.6-5.98l.44-4.42.96-9.6h-6.1C8 4 6 6 5.28 11.2l-.56 5.5c-.4 4.02 2.58 7.3 6.62 7.3Z" stroke="#292D32" stroke-width="1.5" stroke-linecap="round" stroke-linejoin="round"/><path d="M18 38c0 1.5-.42 2.92-1.16 4.12-.38.64-.84 1.22-1.38 1.68-.06.08-.12.14-.2.2A7.81 7.81 0 0 1 10 46c-2.44 0-4.62-1.1-6.06-2.82-.04-.06-.1-.1-.14-.16-.24-.28-.46-.58-.64-.9A7.842 7.842 0 0 1 2 38c0-2.52 1.16-4.78 3-6.24.34-.28.7-.52 1.08-.72C7.24 30.38 8.58 30 10 30c2 0 3.8.72 5.2 1.94.24.18.46.4.66.62C17.18 34 18 35.9 18 38Zm-5.02-.04H7.02M10 35.04v5.98" stroke="#292D32" stroke-width="1.5" stroke-miterlimit="10" stroke-linecap="round" stroke-linejoin="round"/></svg>