<svg width="46" height="46" fill="none" xmlns="http://www.w3.org/2000/svg"><path opacity=".4" d="M25.377 42.167c.9 0 1.648-.729 1.648-1.649V5.482c0-.92-.728-1.649-1.648-1.649C14.087 3.833 6.21 11.711 6.21 23c0 11.29 7.897 19.167 19.167 19.167Z" fill="#F8F8F8"/><path d="m15.525 23.882 5.443 5.462a1.446 1.446 0 0 0 2.032 0 1.446 1.446 0 0 0 0-2.032l-2.99-2.99h18.342c.786 0 1.438-.651 1.438-1.437s-.652-1.438-1.438-1.438H20.01L23 18.439a1.446 1.446 0 0 0 0-2.031 1.422 1.422 0 0 0-1.016-.422c-.364 0-.728.134-1.016.422l-5.443 5.462a1.39 1.39 0 0 0 0 2.013Z" fill="#F8F8F8"/></svg>