<svg width="37" height="37" fill="none" xmlns="http://www.w3.org/2000/svg"><path d="M4.625 33.917h27.75" stroke="#000" stroke-width="1.5" stroke-linecap="round" stroke-linejoin="round"/><path d="M4.625 26.208c0 1.454 0 2.18.452 2.632.451.452 1.178.452 2.631.452 1.454 0 2.18 0 2.632-.452.452-.452.452-1.178.452-2.632v-9.25c0-1.453 0-2.18-.452-2.631-.452-.452-1.178-.452-2.632-.452-1.453 0-2.18 0-2.631.452-.452.451-.452 1.178-.452 2.631v3.084" stroke="#000" stroke-width="1.5" stroke-linecap="round"/><path d="M15.417 10.792c0-1.454 0-2.18.451-2.632.452-.452 1.178-.452 2.632-.452 1.454 0 2.18 0 2.632.452.451.452.451 1.178.451 2.632v15.416c0 1.454 0 2.18-.451 2.632-.452.452-1.178.452-2.632.452-1.454 0-2.18 0-2.632-.452-.451-.452-.451-1.178-.451-2.632V10.792Z" stroke="#000" stroke-width="1.5"/><path d="M32.375 16.958v9.25c0 1.454 0 2.18-.452 2.632-.451.452-1.177.452-2.631.452-1.454 0-2.18 0-2.632-.452-.452-.452-.452-1.178-.452-2.632V6.167c0-1.454 0-2.18.452-2.632.452-.452 1.178-.452 2.632-.452 1.453 0 2.18 0 2.631.452.452.452.452 1.178.452 2.632v4.625" stroke="#000" stroke-width="1.5" stroke-linecap="round"/></svg>