<svg width="31" height="31" fill="none" xmlns="http://www.w3.org/2000/svg"><path d="M5.477 15.823a5.427 5.427 0 0 1-1.602-3.875A5.49 5.49 0 0 1 14.13 9.223h1.446a5.477 5.477 0 0 1 4.767-2.765 5.49 5.49 0 0 1 5.49 5.49 5.575 5.575 0 0 1-1.602 3.875l-9.378 9.364-9.377-9.364Zm19.659.917c1.227-1.24 1.989-2.92 1.989-4.792a6.781 6.781 0 0 0-6.781-6.781 6.74 6.74 0 0 0-5.49 2.803 6.742 6.742 0 0 0-5.49-2.803 6.781 6.781 0 0 0-6.78 6.781c0 1.873.761 3.552 1.988 4.792l10.282 10.282L25.136 16.74Z" fill="#F8F8F8"/></svg>