<svg width="48" height="48" fill="none" xmlns="http://www.w3.org/2000/svg"><path d="M24.926 41.574c-4.333 0-8.112-1.416-11.334-4.247C10.37 34.497 8.507 30.933 8 26.634h2.158c.58 3.671 2.253 6.723 5.017 9.156 2.765 2.433 6.015 3.65 9.751 3.65 4.162 0 7.692-1.45 10.59-4.348 2.898-2.898 4.348-6.429 4.35-10.592.001-4.163-1.449-7.694-4.35-10.592-2.9-2.898-6.43-4.347-10.59-4.347-2.21 0-4.285.466-6.227 1.4a16.609 16.609 0 0 0-5.144 3.852h5.295v2.134H9.987V8.086h2.134v5.096a17.733 17.733 0 0 1 5.8-4.234 16.727 16.727 0 0 1 7.005-1.522c2.367 0 4.585.446 6.655 1.336 2.07.891 3.878 2.11 5.425 3.658a17.27 17.27 0 0 1 3.658 5.426c.892 2.068 1.337 4.287 1.336 6.654-.001 2.368-.447 4.586-1.336 6.654a17.178 17.178 0 0 1-3.658 5.426 17.257 17.257 0 0 1-5.425 3.658c-2.067.89-4.286 1.336-6.655 1.336Zm6.838-8.849-7.783-7.781V13.829h2.134v10.227l7.158 7.158-1.509 1.511Z" fill="#292D32"/></svg>