<svg width="48" height="48" fill="none" xmlns="http://www.w3.org/2000/svg"><path clip-rule="evenodd" d="M24 30a6 6 0 1 0 0-12 6 6 0 0 0 0 12Z" stroke="#F8F8F8" stroke-width="2" stroke-linecap="round" stroke-linejoin="round"/><path clip-rule="evenodd" d="M38.8 30a3.3 3.3 0 0 0 .66 3.64l.12.12a4 4 0 0 1 0 5.66 4 4 0 0 1-5.66 0l-.12-.12a3.3 3.3 0 0 0-3.64-.66 3.3 3.3 0 0 0-2 3.02V42a4 4 0 0 1-8 0v-.18A3.3 3.3 0 0 0 18 38.8a3.3 3.3 0 0 0-3.64.66l-.12.12a4 4 0 0 1-5.66 0 4 4 0 0 1 0-5.66l.12-.12a3.3 3.3 0 0 0 .66-3.64 3.3 3.3 0 0 0-3.02-2H6a4 4 0 0 1 0-8h.18A3.3 3.3 0 0 0 9.2 18a3.3 3.3 0 0 0-.66-3.64l-.12-.12a4 4 0 0 1 0-5.66 4 4 0 0 1 5.66 0l.12.12a3.3 3.3 0 0 0 3.64.66H18a3.3 3.3 0 0 0 2-3.02V6a4 4 0 0 1 8 0v.18a3.3 3.3 0 0 0 2 3.02 3.3 3.3 0 0 0 3.64-.66l.12-.12a4 4 0 0 1 5.66 0 4 4 0 0 1 0 5.66l-.12.12a3.3 3.3 0 0 0-.66 3.64V18a3.3 3.3 0 0 0 3.02 2H42a4 4 0 0 1 0 8h-.18a3.3 3.3 0 0 0-3.02 2Z" stroke="#F8F8F8" stroke-width="2" stroke-linecap="round" stroke-linejoin="round"/></svg>