<svg width="48" height="48" fill="none" xmlns="http://www.w3.org/2000/svg"><path d="M42.5 22.5v19h-36v-19h36Z" stroke="#292D32"/><path d="M24.5 27.5c1.154 0 2.264.47 3.084 1.313A4.57 4.57 0 0 1 28.868 32a4.57 4.57 0 0 1-1.284 3.186A4.304 4.304 0 0 1 24.5 36.5a4.304 4.304 0 0 1-3.084-1.314A4.57 4.57 0 0 1 20.132 32a4.57 4.57 0 0 1 1.284-3.187A4.304 4.304 0 0 1 24.5 27.5Zm9.59-14.633.217.31.356-.122 3.153-1.08 3.174 9.53H8.374L28.577 4.93l5.514 7.938Z" stroke="#292D32"/><path d="M42.026 22.006h-.342l-3.55-10.666L7.662 22.006 6.973 22M6 22.008h.974L28.679 4.2l5.486 7.9" stroke="#292D32" stroke-linecap="square"/><path d="M43 22v20H6V22h37Z" stroke="#292D32" stroke-linecap="square"/><path d="M6 22h3.895c0 1.06-.41 2.078-1.141 2.828A3.843 3.843 0 0 1 6 26v-4Zm37 0h-3.895c0 1.06.41 2.078 1.141 2.828A3.843 3.843 0 0 0 43 26v-4ZM6 42h3.899a4.1 4.1 0 0 0-.296-1.533 4.009 4.009 0 0 0-.845-1.3 3.89 3.89 0 0 0-1.265-.867A3.807 3.807 0 0 0 6 37.996V42Zm37 0h-3.895c0-1.06.41-2.078 1.141-2.828A3.843 3.843 0 0 1 43 38v4Z" stroke="#292D32" stroke-linecap="square"/></svg>